<svg width="190" height="190" viewBox="0 0 190 190" fill="none" xmlns="http://www.w3.org/2000/svg">
<g clip-path="url(#clip0_416_2860)">
<path d="M181.641 98.3521C181.641 98.9997 181.383 99.6208 180.925 100.079C180.467 100.537 179.846 100.794 179.199 100.794H151.336C150.688 100.794 150.067 100.537 149.609 100.079C149.151 99.6208 148.894 98.9997 148.894 98.3521V77.2321C148.894 76.5845 149.151 75.9634 149.609 75.5055C150.067 75.0475 150.688 74.7903 151.336 74.7903H179.199C179.519 74.7903 179.837 74.8534 180.133 74.9762C180.429 75.0989 180.699 75.2787 180.925 75.5055C181.152 75.7322 181.332 76.0014 181.455 76.2976C181.577 76.5939 181.641 76.9114 181.641 77.2321V98.3521Z" fill="#8E7B70"/>
<path d="M168.709 90.3973C168.709 90.7891 168.554 91.1648 168.277 91.4419C168 91.7189 167.624 91.8746 167.232 91.8746H150.371C149.98 91.8746 149.604 91.7189 149.327 91.4419C149.05 91.1648 148.894 90.7891 148.894 90.3973V73.5366C148.894 73.1448 149.05 72.7691 149.327 72.492C149.604 72.215 149.98 72.0593 150.371 72.0593H167.232C167.624 72.0593 168 72.215 168.277 72.492C168.554 72.7691 168.709 73.1448 168.709 73.5366V90.3973Z" fill="#597B91"/>
<path d="M44.8301 108.669C44.7574 108.669 44.6864 108.647 44.6259 108.607C44.5654 108.567 44.5183 108.509 44.4904 108.442C44.4626 108.375 44.4553 108.301 44.4694 108.23C44.4836 108.159 44.5186 108.093 44.57 108.042L62.0967 90.5147C62.1657 90.4457 62.2592 90.407 62.3567 90.407C62.4542 90.407 62.5477 90.4457 62.6167 90.5147C62.6856 90.5836 62.7243 90.6771 62.7243 90.7746C62.7243 90.8721 62.6856 90.9656 62.6167 91.0346L45.0899 108.561C45.0559 108.596 45.0154 108.623 44.9708 108.641C44.9262 108.66 44.8784 108.669 44.8301 108.669V108.669Z" fill="#2B3B47"/>
<path d="M65.9877 99.9052H41.2009C41.1034 99.9052 41.01 99.8665 40.9411 99.7976C40.8722 99.7287 40.8335 99.6352 40.8335 99.5378C40.8335 99.4403 40.8722 99.3469 40.9411 99.278C41.01 99.2091 41.1034 99.1704 41.2009 99.1704H65.9877C66.0852 99.1704 66.1786 99.2091 66.2475 99.278C66.3164 99.3469 66.3551 99.4403 66.3551 99.5378C66.3551 99.6352 66.3164 99.7287 66.2475 99.7976C66.1786 99.8665 66.0852 99.9052 65.9877 99.9052Z" fill="#2B3B47"/>
<path d="M53.5945 83.7031C44.8626 83.7031 37.7588 90.807 37.7588 99.5388C37.7588 108.271 44.8626 115.374 53.5945 115.374C62.3263 115.374 69.4301 108.271 69.4301 99.5388C69.4298 90.807 62.3259 83.7031 53.5945 83.7031V83.7031ZM61.7949 99.5388C61.7977 101.587 61.031 103.562 59.6466 105.071L53.9619 99.3867V91.3477C58.3203 91.5399 61.7949 95.1332 61.7949 99.5388V99.5388ZM53.9619 100.426L59.1267 105.591C57.7102 106.89 55.8815 107.647 53.9619 107.73V100.426ZM53.2267 98.6511L48.0618 93.4863C49.4783 92.188 51.3071 91.4307 53.2267 91.3473V98.6511ZM45.3937 99.5388C45.3909 97.4905 46.1576 95.5159 47.5419 94.0062L53.2267 99.691V107.73C48.8682 107.538 45.3937 103.944 45.3937 99.5388V99.5388Z" fill="#2B3B47"/>
<path d="M53.5937 102.544C55.2538 102.544 56.5996 101.198 56.5996 99.5381C56.5996 97.878 55.2538 96.5322 53.5937 96.5322C51.9337 96.5322 50.5879 97.878 50.5879 99.5381C50.5879 101.198 51.9337 102.544 53.5937 102.544Z" fill="#FF473E"/>
<g filter="url(#filter0_d_416_2860)">
<path d="M157.528 96.7817H95.1071L92.0786 109.347C92.0786 109.347 95.5298 112.37 112.794 112.37H157.528V96.7817H157.528Z" fill="#597B91"/>
</g>
<g filter="url(#filter1_d_416_2860)">
<path d="M187.243 71.8579H175.97V70.3171C175.97 69.885 175.799 69.4706 175.493 69.1651C175.188 68.8596 174.773 68.688 174.341 68.688H157.784C157.352 68.688 156.938 68.8596 156.632 69.1651C156.327 69.4706 156.155 69.885 156.155 70.3171V79.2278C134.896 68.5967 104.38 66.5471 104.38 69.5656C104.38 73.5582 108.112 80.3596 103.486 84.6636H83.1864C79.9014 84.6636 77.0793 86.5172 75.6168 89.2161C70.5276 89.47 63.5856 89.6139 53.8406 89.6139C24.3643 89.6139 8.78393 100.202 8.78393 100.202V103.752H3.07688C2.87324 103.752 2.67795 103.833 2.53396 103.977C2.38997 104.121 2.30908 104.316 2.30908 104.52V109.689C2.30908 110.113 2.65271 110.457 3.07688 110.457H14.3151C14.5187 110.457 14.7139 110.376 14.8579 110.232C15.0018 110.088 15.0828 109.893 15.0829 109.689V104.166H67.7363C82.4742 104.166 87.5274 110.79 105.213 110.79C106.254 110.79 120.131 110.468 123.951 109.78C132.127 108.306 127.671 103.651 148.377 103.651L156.398 103.799C156.688 104.28 157.21 104.604 157.813 104.604H187.243C187.46 104.604 187.676 104.561 187.877 104.478C188.078 104.394 188.261 104.272 188.415 104.118C188.569 103.964 188.691 103.782 188.774 103.58C188.858 103.379 188.901 103.164 188.901 102.946V73.5159C188.901 73.2982 188.858 73.0826 188.775 72.8814C188.691 72.6803 188.569 72.4975 188.415 72.3435C188.261 72.1895 188.079 72.0674 187.877 71.9841C187.676 71.9007 187.461 71.8579 187.243 71.8579V71.8579Z" fill="white"/>
</g>
<path d="M46.615 104.604C46.615 111.449 41.0664 116.998 34.2215 116.998C27.3767 116.998 21.8281 111.449 21.8281 104.604C21.8281 97.7593 27.3767 92.2107 34.2215 92.2107C41.0664 92.2107 46.615 97.7597 46.615 104.604V104.604ZM156.155 90.834C148.55 90.834 142.384 96.9993 142.384 104.605C142.384 112.21 148.55 118.375 156.155 118.375C163.76 118.375 169.925 112.21 169.925 104.605C169.925 96.999 163.76 90.834 156.155 90.834V90.834Z" fill="white"/>
<path d="M25.9829 113.893L24.9334 112.843L42.4606 95.3167L43.51 96.3661L25.9829 113.893ZM46.615 103.862H21.8281V105.347H46.615V103.862Z" fill="#597B91"/>
<path d="M84.8175 84.6638H83.1869C80.0756 84.6638 77.3811 86.3282 75.8622 88.7971L67.5386 88.7006L55.6733 88.6932C51.3285 88.76 46.6898 88.8408 42.0385 89.1682C39.7103 89.3426 37.3883 89.5704 35.1139 89.8751L28.4899 90.7568C26.3539 91.0032 24.2424 91.3654 22.221 91.6842C20.2212 92.0675 18.3416 92.5633 16.6308 93.0847C14.9316 93.6632 13.373 94.2024 12.0486 94.8537C10.6896 95.4122 9.58712 96.1113 8.64751 96.6134C6.84028 97.7263 5.763 98.6733 5.82942 98.621C5.13993 99.2456 7.40138 101.742 8.09087 101.118C8.15173 101.063 8.78815 100.439 10.3805 99.3476C11.2077 98.8682 12.1595 98.195 13.3919 97.6328C14.5757 96.9849 16.003 96.4282 17.5649 95.8211C19.1435 95.2693 20.8932 94.7286 22.7732 94.2866C24.6654 93.9126 26.6686 93.4673 28.8343 93.1559L35.4334 92.0638C37.6626 91.6927 39.9355 91.3969 42.2144 91.1535C46.7807 90.6863 51.3905 90.4588 55.7133 90.2555L67.5486 89.8877L76.0367 89.717L96.5051 110.185C99.0667 110.559 101.92 110.79 105.214 110.79C105.614 110.79 107.91 110.742 110.798 110.645L84.8175 84.6638V84.6638Z" fill="#121212"/>
<path d="M34.9644 116.997H33.48V92.2109H34.9644V116.997ZM43.5106 112.843L25.9835 95.3159L24.9341 96.3653L42.4612 113.892L43.5106 112.843Z" fill="#597B91"/>
<g filter="url(#filter2_d_416_2860)">
<path d="M34.2224 96.4037C38.7516 96.4037 42.4232 100.075 42.4232 104.604C42.4232 109.134 38.7516 112.805 34.2224 112.805C29.6932 112.805 26.0216 109.134 26.0216 104.604C26.0216 100.075 29.6932 96.4037 34.2224 96.4037ZM34.2224 88.7688C25.4906 88.7688 18.3867 95.8726 18.3867 104.604C18.3867 113.336 25.4906 120.44 34.2224 120.44C42.9542 120.44 50.0581 113.336 50.0581 104.604C50.0581 95.8726 42.9542 88.7688 34.2224 88.7688Z" fill="#2B3B47"/>
</g>
<path d="M156.899 118.375H155.414V90.834H156.899V118.375ZM166.419 95.3918L165.369 94.3423L145.895 113.817L146.944 114.866L166.419 95.3918Z" fill="#597B91"/>
<path d="M169.926 105.347H142.385V103.862H169.926V105.347ZM166.418 113.817L146.943 94.3425L145.894 95.392L165.368 114.867L166.418 113.817Z" fill="#597B91"/>
<g filter="url(#filter3_d_416_2860)">
<path d="M156.155 95.4922C161.187 95.4922 165.266 99.5717 165.266 104.604C165.266 109.636 161.187 113.716 156.155 113.716C151.122 113.716 147.043 109.636 147.043 104.604C147.043 99.5717 151.123 95.4922 156.155 95.4922ZM156.155 87.009C146.453 87.009 138.56 94.9022 138.56 104.604C138.56 114.306 146.453 122.199 156.155 122.199C165.856 122.199 173.75 114.306 173.75 104.604C173.75 94.9022 165.857 87.009 156.155 87.009Z" fill="#2B3B47"/>
</g>
<path d="M37.2275 104.604C37.2275 105.401 36.9108 106.166 36.3471 106.729C35.7834 107.293 35.0189 107.61 34.2217 107.61C33.4245 107.61 32.6599 107.293 32.0962 106.729C31.5325 106.166 31.2158 105.401 31.2158 104.604C31.2158 103.807 31.5325 103.042 32.0962 102.478C32.6599 101.915 33.4245 101.598 34.2217 101.598C35.0189 101.598 35.7834 101.915 36.3471 102.478C36.9108 103.042 37.2275 103.807 37.2275 104.604V104.604ZM156.155 101.264C155.269 101.264 154.42 101.616 153.793 102.243C153.167 102.869 152.815 103.718 152.815 104.604C152.815 105.49 153.167 106.34 153.793 106.966C154.42 107.592 155.269 107.944 156.155 107.944C157.041 107.944 157.89 107.592 158.516 106.966C159.143 106.34 159.495 105.49 159.495 104.604C159.495 103.718 159.143 102.869 158.516 102.243C157.89 101.616 157.041 101.264 156.155 101.264Z" fill="#FF473E"/>
<path d="M156.155 79.5774C150.496 79.5819 145.005 81.5006 140.575 85.0213C140.048 84.9096 139.484 84.8128 138.891 84.6907C137.913 84.5063 136.847 84.2784 135.724 84.1296L132.215 83.9077C131.037 83.8238 129.689 83.7355 128.417 83.7741L124.535 83.7897C119.332 83.832 114.128 83.7748 110.226 83.9262C106.323 84.058 103.722 84.3396 103.722 84.3396C103.701 84.3416 103.682 84.3511 103.668 84.3662C103.655 84.3814 103.647 84.4012 103.647 84.4217C103.647 84.4421 103.655 84.4619 103.668 84.4771C103.682 84.4922 103.701 84.5017 103.722 84.5037C103.722 84.5037 106.323 84.7853 110.226 84.9171C114.128 85.0688 119.331 85.0113 124.535 85.0536L128.417 85.0692C129.708 85.0414 130.874 85.1338 132.129 85.2299L135.636 85.48L138.674 86.0025C139.613 86.1743 140.483 86.2704 141.235 86.4987L143.197 87.0022C144.283 87.2846 144.87 87.5054 144.87 87.5054C145.015 87.5622 145.177 87.5587 145.321 87.4959C145.464 87.433 145.576 87.3158 145.633 87.1702C145.689 87.0245 145.686 86.8623 145.623 86.7191C145.56 86.576 145.443 86.4637 145.297 86.407L145.284 86.4018C145.284 86.4018 144.656 86.1491 143.546 85.8326L142.017 85.4017C146.115 82.3869 151.068 80.7591 156.156 80.7556C169.305 80.7556 180.003 91.4539 180.003 104.604H181.184C181.182 90.8037 169.954 79.5774 156.155 79.5774V79.5774Z" fill="#597B91"/>
<path d="M119.501 110.232C121.379 110.105 122.987 109.954 123.952 109.78C127.208 109.194 128.468 108.102 130.104 107.001L105.233 82.1296C104.871 83.034 104.318 83.8901 103.486 84.6638H93.9326" fill="#121212"/>
<path d="M14.7117 111.789H1.63654C1.28331 111.789 0.94455 111.649 0.694779 111.399C0.445008 111.149 0.304688 110.81 0.304688 110.457C0.304688 110.104 0.445008 109.765 0.694779 109.515C0.94455 109.266 1.28331 109.125 1.63654 109.125H14.7117C15.0649 109.125 15.4036 109.266 15.6534 109.515C15.9032 109.765 16.0435 110.104 16.0435 110.457C16.0435 110.81 15.9032 111.149 15.6534 111.399C15.4036 111.649 15.0649 111.789 14.7117 111.789V111.789Z" fill="#597B91"/>
</g>
<defs>
<filter id="filter0_d_416_2860" x="88.0786" y="96.7817" width="73.4492" height="23.5886" filterUnits="userSpaceOnUse" color-interpolation-filters="sRGB">
<feFlood flood-opacity="0" result="BackgroundImageFix"/>
<feColorMatrix in="SourceAlpha" type="matrix" values="0 0 0 0 0 0 0 0 0 0 0 0 0 0 0 0 0 0 127 0" result="hardAlpha"/>
<feOffset dy="4"/>
<feGaussianBlur stdDeviation="2"/>
<feComposite in2="hardAlpha" operator="out"/>
<feColorMatrix type="matrix" values="0 0 0 0 0 0 0 0 0 0 0 0 0 0 0 0 0 0 0.25 0"/>
<feBlend mode="normal" in2="BackgroundImageFix" result="effect1_dropShadow_416_2860"/>
<feBlend mode="normal" in="SourceGraphic" in2="effect1_dropShadow_416_2860" result="shape"/>
</filter>
<filter id="filter1_d_416_2860" x="-1.69092" y="68.2981" width="194.591" height="50.4919" filterUnits="userSpaceOnUse" color-interpolation-filters="sRGB">
<feFlood flood-opacity="0" result="BackgroundImageFix"/>
<feColorMatrix in="SourceAlpha" type="matrix" values="0 0 0 0 0 0 0 0 0 0 0 0 0 0 0 0 0 0 127 0" result="hardAlpha"/>
<feOffset dy="4"/>
<feGaussianBlur stdDeviation="2"/>
<feComposite in2="hardAlpha" operator="out"/>
<feColorMatrix type="matrix" values="0 0 0 0 0 0 0 0 0 0 0 0 0 0 0 0 0 0 0.25 0"/>
<feBlend mode="normal" in2="BackgroundImageFix" result="effect1_dropShadow_416_2860"/>
<feBlend mode="normal" in="SourceGraphic" in2="effect1_dropShadow_416_2860" result="shape"/>
</filter>
<filter id="filter2_d_416_2860" x="14.3867" y="88.7688" width="39.6714" height="39.6714" filterUnits="userSpaceOnUse" color-interpolation-filters="sRGB">
<feFlood flood-opacity="0" result="BackgroundImageFix"/>
<feColorMatrix in="SourceAlpha" type="matrix" values="0 0 0 0 0 0 0 0 0 0 0 0 0 0 0 0 0 0 127 0" result="hardAlpha"/>
<feOffset dy="4"/>
<feGaussianBlur stdDeviation="2"/>
<feComposite in2="hardAlpha" operator="out"/>
<feColorMatrix type="matrix" values="0 0 0 0 0 0 0 0 0 0 0 0 0 0 0 0 0 0 0.25 0"/>
<feBlend mode="normal" in2="BackgroundImageFix" result="effect1_dropShadow_416_2860"/>
<feBlend mode="normal" in="SourceGraphic" in2="effect1_dropShadow_416_2860" result="shape"/>
</filter>
<filter id="filter3_d_416_2860" x="134.56" y="87.009" width="43.1899" height="43.1902" filterUnits="userSpaceOnUse" color-interpolation-filters="sRGB">
<feFlood flood-opacity="0" result="BackgroundImageFix"/>
<feColorMatrix in="SourceAlpha" type="matrix" values="0 0 0 0 0 0 0 0 0 0 0 0 0 0 0 0 0 0 127 0" result="hardAlpha"/>
<feOffset dy="4"/>
<feGaussianBlur stdDeviation="2"/>
<feComposite in2="hardAlpha" operator="out"/>
<feColorMatrix type="matrix" values="0 0 0 0 0 0 0 0 0 0 0 0 0 0 0 0 0 0 0.25 0"/>
<feBlend mode="normal" in2="BackgroundImageFix" result="effect1_dropShadow_416_2860"/>
<feBlend mode="normal" in="SourceGraphic" in2="effect1_dropShadow_416_2860" result="shape"/>
</filter>
<clipPath id="clip0_416_2860">
<rect width="190" height="190" fill="white"/>
</clipPath>
</defs>
</svg>
